# Blender 4.4.3
# www.blender.org
mtllib Box.mtl
o Box
v -0.827192 0.000000 0.827192
v -0.827192 0.827192 0.827192
v -0.827192 0.000000 -0.827192
v -0.827192 0.827192 -0.827192
v 0.827192 0.000000 0.827192
v 0.827192 0.827192 0.827192
v 0.827192 0.000000 -0.827192
v 0.827192 0.827192 -0.827192
v -0.859596 0.711149 0.859596
v -0.859596 0.921726 0.859596
v -0.859596 0.711149 -0.859596
v -0.859596 0.921726 -0.859596
v 0.859596 0.711149 0.859596
v 0.859596 0.921726 0.859596
v 0.859596 0.711149 -0.859596
v 0.859596 0.921726 -0.859596
vn -1.0000 -0.0000 -0.0000
vn -0.0000 -0.0000 -1.0000
vn 1.0000 -0.0000 -0.0000
vn -0.0000 -0.0000 1.0000
vn -0.0000 -1.0000 -0.0000
vn -0.0000 1.0000 -0.0000
vt 0.000082 0.500000
vt 0.166721 0.500000
vt 0.166721 0.833279
vt 0.000082 0.833279
vt 0.166721 0.999918
vt 0.500000 0.833279
vt 0.500000 0.999918
vt 0.666639 0.833279
vt 0.500000 0.500000
vt 0.666639 0.500000
vt 0.500000 0.333361
vt 0.166721 0.333361
vt 0.166721 0.000082
vt 0.500000 0.000082
vt 0.000074 0.500000
vt 0.054627 0.500000
vt 0.054627 0.945373
vt 0.000074 0.945373
vt 0.054627 0.999925
vt 0.500000 0.945373
vt 0.500000 0.999925
vt 0.554552 0.945373
vt 0.500000 0.500000
vt 0.554552 0.500000
vt 0.500000 0.445448
vt 0.054627 0.445448
vt 0.054627 0.000075
vt 0.500000 0.000074
s 0
f 1/1/1 2/2/1 4/3/1 3/4/1
f 3/5/2 4/3/2 8/6/2 7/7/2
f 7/8/3 8/6/3 6/9/3 5/10/3
f 5/11/4 6/9/4 2/2/4 1/12/4
f 3/13/5 7/14/5 5/11/5 1/12/5
f 8/6/6 4/3/6 2/2/6 6/9/6
f 9/15/1 10/16/1 12/17/1 11/18/1
f 11/19/2 12/17/2 16/20/2 15/21/2
f 15/22/3 16/20/3 14/23/3 13/24/3
f 13/25/4 14/23/4 10/16/4 9/26/4
f 11/27/5 15/28/5 13/25/5 9/26/5
f 16/20/6 12/17/6 10/16/6 14/23/6
