# Blender 4.4.3
# www.blender.org
mtllib hat.mtl
o Hat
v -0.128076 1.837352 0.556337
v -0.120610 2.110257 0.142438
v -0.517829 1.833274 0.248940
v -0.099574 1.947851 0.319661
v -0.246563 1.910841 0.304781
v -0.295748 1.945799 0.164939
v -0.386622 1.836064 0.483356
v -0.127229 1.397990 0.561092
v -0.515872 1.387528 0.260259
v -0.385775 1.396701 0.488111
v -0.235100 1.294417 0.298425
v -0.280919 1.256841 0.167411
v -0.094070 1.259801 0.313446
v -0.256097 1.825373 -0.527678
v -0.579520 1.811294 -0.129546
v -0.153133 2.107213 -0.132951
v -0.504360 1.812993 -0.390906
v -0.312922 1.904632 -0.257106
v -0.328271 1.942755 -0.110450
v -0.173536 1.940931 -0.306616
v -0.582670 1.320867 -0.083480
v -0.267445 1.379346 -0.517197
v -0.317711 1.247767 -0.091649
v -0.307415 1.280096 -0.232845
v -0.505865 1.357705 -0.373801
v -0.172041 1.251373 -0.283992
v -0.032974 1.253253 -0.302449
v -0.061798 1.386136 -0.545771
v 0.017092 2.110346 0.126174
v 0.038129 1.947941 0.303397
v 0.065376 1.837478 0.533489
v -0.015431 2.107303 -0.149214
v -0.035834 1.941020 -0.322880
v -0.062645 1.825499 -0.550526
v 0.037922 1.259887 0.297857
v 0.066223 1.398116 0.538244
v -0.136872 2.108735 0.004744
v -0.312009 1.944277 0.027244
v -0.549587 1.821781 0.059987
v -0.298626 1.253125 0.037481
v -0.542847 1.370539 0.077677
v 0.000831 2.108825 -0.011520
v 0.258828 1.837604 0.510641
v 0.154795 2.110436 0.109911
v 0.566250 1.833979 0.120904
v 0.175831 1.948030 0.287134
v 0.315358 1.911206 0.238415
v 0.330566 1.946206 0.090967
v 0.493259 1.836636 0.379437
v 0.259675 1.398241 0.515396
v 0.569025 1.375390 0.110170
v 0.494107 1.397274 0.384192
v 0.303519 1.294767 0.234811
v 0.320979 1.253854 0.087535
v 0.169914 1.259973 0.282268
v 0.130807 1.825625 -0.573374
v 0.531538 1.813340 -0.276309
v 0.122272 2.107393 -0.165478
v 0.396040 1.821841 -0.503002
v 0.248999 1.904997 -0.323472
v 0.298043 1.943163 -0.184421
v 0.101869 1.941110 -0.339143
v 0.499469 1.345225 -0.309718
v 0.124254 1.390462 -0.564092
v 0.283113 1.252882 -0.175011
v 0.233944 1.290325 -0.304678
v 0.380357 1.387913 -0.500988
v 0.094755 1.255640 -0.314373
v 0.138533 2.108914 -0.027783
v 0.314305 1.944684 -0.046727
v 0.552604 1.817818 -0.081200
v 0.302879 1.252475 -0.044367
v 0.541694 1.362554 -0.094442
vn -0.8474 -0.4869 0.2117
vn -0.8658 0.4840 0.1272
vn -0.8886 0.4535 -0.0693
vn -0.8399 -0.5427 -0.0046
vn -0.0019 0.9999 -0.0108
vn -0.0463 0.9209 -0.3872
vn -0.3581 0.8871 -0.2913
vn -0.3786 0.9249 0.0345
vn 0.1043 -0.4617 0.8809
vn 0.1013 0.4991 0.8606
vn -0.0837 0.4832 0.8715
vn -0.0814 -0.4475 0.8906
vn -0.1144 0.8491 0.5157
vn -0.3068 0.8738 0.3773
vn -0.5512 0.4627 0.6943
vn -0.2832 0.8943 0.3464
vn -0.4888 0.8443 0.2195
vn -0.8274 0.4825 0.2874
vn -0.5506 -0.4329 0.7138
vn -0.1129 -0.9778 0.1767
vn -0.0676 -0.9976 0.0166
vn -0.8273 -0.4591 0.3237
vn 0.0570 -0.9922 0.1106
vn -0.2950 0.4648 -0.8349
vn -0.7109 0.4329 -0.5543
vn -0.4095 0.8560 -0.3155
vn -0.2400 0.8358 -0.4939
vn -0.5396 0.8326 -0.1248
vn -0.6861 -0.4711 -0.5544
vn -0.0363 -0.9899 -0.1372
vn 0.1695 -0.9855 -0.0094
vn -0.2809 -0.4687 -0.8375
vn -0.0228 -0.9994 0.0251
vn 0.0150 -0.9986 -0.0501
vn -0.0920 -0.4792 -0.8729
vn -0.5741 0.8171 0.0526
vn 0.0427 0.9295 0.3664
vn 0.0652 0.8282 0.5566
vn 0.0585 -0.9913 0.1178
vn 0.0095 -0.9971 0.0751
vn -0.0684 0.8157 -0.5744
vn -0.1035 0.4785 -0.8719
vn 0.8579 -0.5052 -0.0936
vn 0.7703 -0.5388 -0.3409
vn 0.8444 0.4395 -0.3062
vn 0.8787 0.4620 -0.1202
vn 0.3750 0.9254 -0.0545
vn 0.2792 0.8875 -0.3666
vn 0.2873 -0.4473 0.8470
vn 0.2838 0.4834 0.8281
vn 0.6994 0.4624 0.5449
vn 0.3851 0.8742 0.2956
vn 0.2303 0.8493 0.4750
vn 0.3549 0.8947 0.2711
vn 0.5272 0.8442 0.0966
vn 0.8721 0.4830 0.0789
vn 0.0728 -0.9973 -0.0012
vn 0.1432 -0.9775 0.1551
vn 0.7029 -0.4286 0.5676
vn 0.8757 -0.4717 0.1035
vn -0.0514 -0.9922 0.1137
vn 0.0799 0.4644 -0.8820
vn 0.1126 0.8376 -0.5345
vn 0.3152 0.8628 -0.3953
vn 0.5437 0.4417 -0.7137
vn 0.4964 0.8342 -0.2402
vn -0.1351 -0.9895 -0.0518
vn 0.0305 -0.9820 -0.1864
vn 0.5062 -0.4461 -0.7381
vn 0.0775 -0.4669 -0.8809
vn 0.0800 -0.9968 -0.0030
vn 0.5726 0.8156 -0.0832
vn -0.0200 -0.9991 0.0384
vt 0.181234 0.754826
vt 0.000000 0.754826
vt 0.000000 0.659012
vt 0.181234 0.659012
vt 0.708188 0.268465
vt 0.708188 0.336667
vt 0.645676 0.336667
vt 0.645676 0.268465
vt 0.362468 0.754826
vt 0.181234 0.754826
vt 0.181234 0.659012
vt 0.362468 0.659012
vt 0.666113 -0.000000
vt 0.672784 0.113362
vt 0.613780 0.129309
vt 0.554216 0.050568
vt 0.645676 0.200263
vt 0.593134 0.200263
vt 0.507867 0.172651
vt 0.344562 -0.000000
vt 0.460036 0.050568
vt 0.393554 0.135079
vt 0.333916 0.119794
vt 0.507867 0.172651
vt 0.412704 0.203091
vt 0.666113 0.536930
vt 0.554216 0.486362
vt 0.613780 0.407621
vt 0.672784 0.423567
vt 0.507867 0.364279
vt 0.593134 0.336667
vt 0.507867 0.364279
vt 0.460036 0.486362
vt 0.393554 0.401850
vt 0.412704 0.333839
vt 0.344562 0.536930
vt 0.333916 0.417135
vt 0.272080 0.417135
vt 0.253934 0.536930
vt 0.000000 0.536930
vt 0.181234 0.536930
vt 0.543703 0.969038
vt 0.362468 0.969038
vt 0.362468 0.841425
vt 0.543703 0.841425
vt 0.000000 0.850641
vt 0.181234 0.850641
vt 0.181234 0.972723
vt -0.000000 0.972723
vt 0.181234 0.536930
vt 0.362468 0.536930
vt 0.724937 0.605132
vt 0.724937 0.536930
vt 0.792728 0.536930
vt 0.792728 0.605132
vt 0.593134 0.268465
vt 0.507867 0.268465
vt 0.708188 0.200263
vt 0.735296 0.113362
vt 0.753933 -0.000000
vt 0.412704 0.268465
vt 0.507867 0.268465
vt 0.272080 0.119794
vt 0.253934 -0.000000
vt 0.735296 0.423567
vt 0.753933 0.536930
vt 0.362468 0.746421
vt 0.543703 0.746421
vt 0.724937 0.673334
vt 0.792728 0.673334
vt 0.724937 0.746421
vt 0.724937 0.841425
vt 0.543703 0.841425
vt 0.543703 0.746421
vt 0.770700 0.268465
vt 0.770700 0.336667
vt 0.362468 0.850641
vt 0.181234 0.850641
vt 0.841754 0.000000
vt 0.953651 0.050568
vt 0.868872 0.129309
vt 0.797808 0.113362
vt 0.770700 0.200263
vt 0.877458 0.200263
vt 1.000000 0.172651
vt 0.163305 -0.000000
vt 0.210245 0.119794
vt 0.141223 0.135079
vt 0.047831 0.050568
vt 0.000000 0.172651
vt 0.131457 0.203091
vt 0.841754 0.536930
vt 0.797808 0.423567
vt 0.868872 0.407621
vt 0.953651 0.486362
vt 1.000000 0.364279
vt 0.877458 0.336667
vt -0.000000 0.364279
vt 0.131457 0.333839
vt 0.141223 0.401850
vt 0.047831 0.486362
vt 0.163305 0.536930
vt 0.210245 0.417135
vt 0.724937 0.969038
vt 0.543703 0.536930
vt 0.543703 0.651417
vt 0.362469 0.651417
vt 0.362469 0.536930
vt 0.543703 0.651417
vt 0.543703 0.536930
vt 0.724937 0.651417
vt 0.181234 0.972723
vt 0.362468 0.972723
vt 0.877458 0.268465
vt 1.000000 0.268465
vt 0.131457 0.268465
vt -0.000000 0.268465
s 1
usemtl Material
f 41/1/1 39/2/2 15/3/3 21/4/4
f 42/5/5 32/6/6 16/7/7 37/8/8
f 36/9/9 31/10/10 1/11/11 8/12/12
f 1/13/11 4/14/13 5/15/14 7/16/15
f 2/17/16 6/18/17 5/15/14 4/14/13
f 3/19/18 7/16/15 5/15/14 6/18/17
f 8/20/12 10/21/19 11/22/20 13/23/21
f 9/24/22 12/25/23 11/22/20 10/21/19
f 14/26/24 17/27/25 18/28/26 20/29/27
f 15/30/3 19/31/28 18/28/26 17/27/25
f 16/7/7 20/29/27 18/28/26 19/31/28
f 21/32/4 25/33/29 24/34/30 23/35/31
f 22/36/32 26/37/33 24/34/30 25/33/29
f 27/38/34 26/37/33 22/36/32 28/39/35
f 21/4/4 15/3/3 17/40/25 25/41/29
f 25/42/29 17/43/25 14/44/24 22/45/32
f 3/46/18 9/47/22 10/48/19 7/49/15
f 7/50/15 10/51/19 8/12/12 1/11/11
f 37/52/8 16/53/7 19/54/28 38/55/36
f 38/56/36 19/31/28 15/30/3 39/57/2
f 29/58/37 2/17/16 4/14/13 30/59/38
f 30/59/38 4/14/13 1/13/11 31/60/10
f 40/61/39 12/25/23 9/24/22 41/62/1
f 13/23/21 35/63/40 36/64/9 8/20/12
f 20/29/27 33/65/41 34/66/42 14/26/24
f 16/7/7 32/6/6 33/65/41 20/29/27
f 22/45/32 14/44/24 34/67/42 28/68/35
f 23/35/31 40/61/39 41/62/1 21/32/4
f 6/18/17 38/56/36 39/57/2 3/19/18
f 2/69/16 37/52/8 38/55/36 6/70/17
f 29/58/37 42/5/5 37/8/8 2/17/16
f 9/47/22 3/46/18 39/2/2 41/1/1
f 73/71/43 63/72/44 57/73/45 71/74/46
f 42/5/5 69/75/47 58/76/48 32/6/6
f 36/9/9 50/77/49 43/78/50 31/10/10
f 43/79/50 49/80/51 47/81/52 46/82/53
f 44/83/54 46/82/53 47/81/52 48/84/55
f 45/85/56 48/84/55 47/81/52 49/80/51
f 50/86/49 55/87/57 53/88/58 52/89/59
f 51/90/60 52/89/59 53/88/58 54/91/61
f 56/92/62 62/93/63 60/94/64 59/95/65
f 57/96/45 59/95/65 60/94/64 61/97/66
f 58/76/48 61/97/66 60/94/64 62/93/63
f 63/98/44 65/99/67 66/100/68 67/101/69
f 64/102/70 67/101/69 66/100/68 68/103/71
f 27/38/34 28/39/35 64/102/70 68/103/71
f 63/72/44 67/104/69 59/42/65 57/73/45
f 67/105/69 64/106/70 56/107/62 59/108/65
f 45/109/56 49/110/51 52/53/59 51/111/60
f 49/112/51 43/78/50 50/77/49 52/113/59
f 69/75/47 70/114/72 61/97/66 58/76/48
f 70/114/72 71/115/46 57/96/45 61/97/66
f 29/58/37 30/59/38 46/82/53 44/83/54
f 30/59/38 31/60/10 43/79/50 46/82/53
f 72/116/73 73/117/43 51/90/60 54/91/61
f 55/87/57 50/86/49 36/64/9 35/63/40
f 62/93/63 56/92/62 34/66/42 33/65/41
f 58/76/48 62/93/63 33/65/41 32/6/6
f 64/106/70 28/68/35 34/67/42 56/107/62
f 65/99/67 63/98/44 73/117/43 72/116/73
f 48/84/55 45/85/56 71/115/46 70/114/72
f 44/83/54 48/84/55 70/114/72 69/75/47
f 29/58/37 44/83/54 69/75/47 42/5/5
f 51/111/60 73/71/43 71/74/46 45/109/56
