# Blender 4.4.3
# www.blender.org
mtllib Medipack.mtl
o Cube
v 5.731576 1.376459 3.367862
v 5.731576 1.453616 3.496683
v 5.654420 1.453616 3.367862
v 5.731576 1.918732 3.496683
v 5.731576 1.995888 3.367862
v 5.654420 1.918732 3.367862
v 5.731576 1.376459 2.591298
v 5.654420 1.453616 2.591298
v 5.731576 1.453616 2.462477
v 5.731576 1.995888 2.591298
v 5.731576 1.918732 2.462477
v 5.654420 1.918732 2.591298
v 6.196693 1.376459 3.367862
v 6.273849 1.453616 3.367862
v 6.196693 1.453616 3.496683
v 6.196693 1.995888 3.367862
v 6.196693 1.918732 3.496683
v 6.273849 1.918732 3.367862
v 6.196693 1.376459 2.591298
v 6.196693 1.453616 2.462477
v 6.273849 1.453616 2.591298
v 6.196693 1.995888 2.591298
v 6.273849 1.918732 2.591298
v 6.196693 1.918732 2.462477
vn -0.0000 -0.0000 1.0000
vn 1.0000 -0.0000 -0.0000
vn -0.0000 1.0000 -0.0000
vn -1.0000 -0.0000 -0.0000
vn -0.0000 -0.0000 -1.0000
vn -0.6511 -0.6511 0.3900
vn -0.6511 0.6511 0.3900
vn -0.6511 -0.6511 -0.3900
vn -0.6511 0.6511 -0.3900
vn 0.6511 -0.6511 0.3900
vn 0.6511 0.6511 0.3900
vn 0.6511 -0.6511 -0.3900
vn 0.6511 0.6511 -0.3900
vn -0.7071 -0.7071 -0.0000
vn -0.8579 -0.0000 0.5138
vn -0.7071 0.7071 -0.0000
vn -0.8579 -0.0000 -0.5138
vn -0.0000 -0.8579 -0.5138
vn -0.0000 0.8579 -0.5138
vn 0.8579 -0.0000 -0.5138
vn 0.7071 -0.7071 -0.0000
vn 0.7071 0.7071 -0.0000
vn 0.8579 -0.0000 0.5138
vn -0.0000 -0.8579 0.5138
vn -0.0000 0.8579 0.5138
vn -0.0000 -1.0000 -0.0000
vt 0.406140 0.781140
vt 0.593860 0.781140
vt 0.593860 0.968860
vt 0.406140 0.968860
vt 0.406140 0.531140
vt 0.593860 0.531140
vt 0.593860 0.718860
vt 0.406140 0.718860
vt 0.656140 0.531140
vt 0.843860 0.531140
vt 0.843860 0.718860
vt 0.656140 0.718860
vt 0.406140 0.031140
vt 0.593860 0.031140
vt 0.593860 0.218860
vt 0.406140 0.218860
vt 0.406140 0.281140
vt 0.593860 0.281140
vt 0.593860 0.468860
vt 0.406140 0.468860
vt 0.156140 0.718860
vt 0.156140 0.750000
vt 0.125000 0.718860
vt 0.593860 0.000000
vt 0.625000 0.031140
vt 0.156140 0.531140
vt 0.125000 0.531140
vt 0.156140 0.500000
vt 0.625000 0.218860
vt 0.593860 0.250000
vt 0.343860 0.718860
vt 0.375000 0.718860
vt 0.343860 0.750000
vt 0.625000 0.781140
vt 0.593860 0.750000
vt 0.343860 0.531140
vt 0.343860 0.500000
vt 0.375000 0.531140
vt 0.625000 0.468860
vt 0.593860 0.500000
vt 0.406140 0.000000
vt 0.625000 0.281140
vt 0.625000 0.968860
s 0
f 15/1/1 17/2/1 4/3/1 2/4/1
f 21/5/2 23/6/2 18/7/2 14/8/2
f 22/9/3 10/10/3 5/11/3 16/12/3
f 3/13/4 6/14/4 12/15/4 8/16/4
f 9/17/5 11/18/5 24/19/5 20/20/5
f 1/21/6 2/22/6 3/23/6
f 4/24/7 5/25/7 6/14/7
f 7/26/8 8/27/8 9/28/8
f 10/29/9 11/30/9 12/15/9
f 13/31/10 14/32/10 15/33/10
f 16/34/11 17/2/11 18/35/11
f 19/36/12 20/37/12 21/38/12
f 22/39/13 23/40/13 24/19/13
f 7/26/14 1/21/14 3/23/14 8/27/14
f 2/41/15 4/24/15 6/14/15 3/13/15
f 5/25/16 10/29/16 12/15/16 6/14/16
f 11/18/17 9/17/17 8/16/17 12/15/17
f 19/36/18 7/26/18 9/28/18 20/37/18
f 10/42/19 22/39/19 24/19/19 11/18/19
f 23/6/20 21/5/20 20/20/20 24/19/20
f 13/31/21 19/36/21 21/5/21 14/8/21
f 22/9/22 16/12/22 18/7/22 23/6/22
f 17/2/23 15/1/23 14/8/23 18/7/23
f 1/21/24 13/31/24 15/33/24 2/22/24
f 16/34/25 5/43/25 4/3/25 17/2/25
f 7/26/26 19/36/26 13/31/26 1/21/26
