# Blender 4.4.3
# www.blender.org
mtllib Plots.mtl
o Plot
v 1.000000 0.200000 -1.000000
v 1.000000 0.000000 -1.000000
v 1.000000 0.200000 1.000000
v 1.000000 0.000000 1.000000
v -1.000000 0.200000 -1.000000
v -1.000000 0.000000 -1.000000
v -1.000000 0.200000 1.000000
v -1.000000 0.000000 1.000000
v 0.802583 0.195770 0.802583
v -0.802583 0.195770 0.802583
v 0.802583 0.195770 -0.802583
v -0.802583 0.195770 -0.802583
v 0.802583 0.109660 0.802583
v -0.802583 0.109660 0.802583
v 0.802583 0.109660 -0.802583
v -0.802583 0.109660 -0.802583
vn -0.0000 0.9998 0.0214
vn -0.0000 -0.0000 1.0000
vn -1.0000 -0.0000 -0.0000
vn -0.0000 -1.0000 -0.0000
vn 1.0000 -0.0000 -0.0000
vn -0.0000 -0.0000 -1.0000
vn -0.0000 0.9998 -0.0214
vn 0.0214 0.9998 -0.0000
vn -0.0214 0.9998 -0.0000
vn -0.0000 1.0000 -0.0000
vt 0.500000 0.956174
vt 0.062665 0.956174
vt 0.105834 0.912996
vt 0.456831 0.912996
vt 0.500000 0.437427
vt 0.500000 0.481161
vt 0.062665 0.481161
vt 0.062665 0.437427
vt 0.000092 0.500000
vt 0.043826 0.500000
vt 0.043826 0.937335
vt 0.000092 0.937335
vt 0.062665 0.000092
vt 0.500000 0.000092
vt 0.605926 0.437427
vt 0.562192 0.437427
vt 0.562192 0.000092
vt 0.605926 0.000092
vt 0.062665 0.999908
vt 0.500000 0.999908
vt 0.105834 0.894166
vt 0.456831 0.894166
vt 0.456831 0.524339
vt 0.105834 0.524339
vt 0.087004 0.543169
vt 0.087004 0.894166
vt 0.519014 0.394258
vt 0.519014 0.043261
vt 0.105834 0.543169
vt 0.456831 0.543169
vt 0.500184 0.394258
vt 0.500184 0.043261
s 0
usemtl Material
f 1/1/1 5/2/1 12/3/1 11/4/1
f 4/5/2 3/6/2 7/7/2 8/8/2
f 8/9/3 7/10/3 5/11/3 6/12/3
f 6/13/4 2/14/4 4/5/4 8/8/4
f 2/15/5 1/16/5 3/17/5 4/18/5
f 6/19/6 5/2/6 1/1/6 2/20/6
f 11/4/2 12/3/2 16/21/2 15/22/2
f 7/7/7 3/6/7 9/23/7 10/24/7
f 5/11/8 7/10/8 10/25/8 12/26/8
f 3/17/9 1/16/9 11/27/9 9/28/9
f 15/22/10 16/21/10 14/29/10 13/30/10
f 9/28/3 11/27/3 15/31/3 13/32/3
f 12/26/5 10/25/5 14/29/5 16/21/5
f 10/24/6 9/23/6 13/30/6 14/29/6
